<?xml version="1.0" encoding="UTF-8"?>
<svg id="Layer_1" data-name="Layer 1" xmlns="http://www.w3.org/2000/svg" version="1.1" viewBox="0 0 252 189">
  <defs>
    <style>
      .cls-1, .cls-2, .cls-3, .cls-4, .cls-5, .cls-6, .cls-7, .cls-8, .cls-9 {
        stroke-width: 0px;
      }

      .cls-1, .cls-4 {
        fill: #c9c9c8;
      }

      .cls-2, .cls-5 {
        fill: #fcfcfc;
      }

      .cls-3 {
        fill: #0d0d0d;
      }

      .cls-3, .cls-4, .cls-5, .cls-10, .cls-9 {
        display: none;
      }

      .cls-6 {
        fill: #fdfd00;
      }

      .cls-7, .cls-9 {
        fill: #626262;
      }

      .cls-8 {
        fill: #ad0419;
      }
    </style>
  </defs>
  <path class="cls-1" d="M43.5,74.25v-15.68h14.9v-19.86c2.13-.17,3.72-.3,5.31-.43,4.71-2.54,25.92-2.53,30.65.02,20.42,0,40.84,0,61.25,0,.38-.31.69-.8,1.17-.87,9.44-1.48,18.88-1.43,28.32-.04.5.07.79.57,1.15.89,1.47.08,2.95.16,4.98.28v19.66h15.24v16.03c1.85,2.01,1.82,4.53,1.83,7,.04,10.4.04,20.8,0,31.2,0,2.49-.03,4.99-1.84,7.01v20.83h-20.01c-.2-.2-.41-.39-.61-.58-1.73-3.64-.77-7.52-1.02-11.29-.14-2.13.25-4.33-1.05-6.87-5.07-.93-10.38-.9-15.72.04-2.16,6.28.43,12.65-1.92,18.52-.37.52-.83.91-1.4,1.19-2.06.86-4.24.8-6.39.8-22.28.03-44.55.03-66.83,0-1.99,0-4,.03-5.91-.65-.57-.22-1.08-.57-1.51-1-1.79-2.86-1.08-6.09-1.28-9.19-.19-3.09.56-6.28-1.18-9.62-5.03-1.17-10.21-.66-15.44-.34-2.43,6.23.37,12.63-2.07,18.41-.21.2-.41.39-.62.58h-20.01v-20.83c-1.68-1.87-1.82-4.18-1.83-6.51-.05-10.73-.05-21.46,0-32.19.01-2.32.1-4.65,1.82-6.51Z"/>
  <path class="cls-1" d="M186.47,140.29v39.71H63.52c0-13.25,0-26.48,0-39.71,0,0-.05.05-.05.05,7.02-2.86,14.04-2.86,21.05,0l-.05-.05c2.02,2.18,1.68,4.92,1.8,7.55.14,3.13-.39,6.31,1.08,10.6,24.86.18,50.08.11,75.15.03,1.72-4.02,1.05-7.38,1.22-10.64.14-2.63-.22-5.37,1.8-7.55l-.05.05c7.02-2.85,14.04-2.86,21.05,0l-.05-.05Z"/>
  <path class="cls-7" d="M43.5,74.25c0,15.07,0,30.14,0,45.21-8.41,0-16.82,0-25.51,0v-45.21h25.5Z"/>
  <path class="cls-7" d="M206.48,119.46c0-15.07,0-30.14,0-45.21,8.41,0,16.82,0,25.5,0v45.21h-25.51Z"/>
  <path class="cls-7" d="M94.37,38.3c-10.22,0-20.43-.01-30.65-.02,0-9.93,0-19.86,0-30.04h30.65v30.06Z"/>
  <path class="cls-7" d="M186.27,38.28c-10.21,0-20.43.01-30.64.02,0-9.93,0-19.86,0-30.06h30.64v30.04Z"/>
  <path class="cls-3" d="M327.72,472.02c-1.53-1.06-2.57-1.78-3.71-2.56.08-1.07.17-2.2.33-4.25,3.66,1.55,6.82,2.88,10.72,4.53-1.71,2.79-2.85,4.66-4.15,6.79,5.28-.9,10.42-2.06,15.63-2.58,3.79-.38,8.31-1.57,10.52,3.17,1.59,3.4-1.03,8.24-6.53,10.36-5.46,2.11-11.41,2.97-17.63,4.5-.74,3.66,2.9,3.58,5.84,4.62.21,1.24.44,2.63.77,4.67-4.06-1.09-7.67-2.07-11.25-3.03-1.09-3.09-2.13-6.03-3.11-8.78-1.9-.96-3.47-1.75-5.05-2.54.06-.36.11-.72.17-1.07,3.32,0,6.7-.38,9.95.08,6.27.89,12.31.79,17.88-2.56,1.53-.92,2.7-2.43,4.04-3.67-.17-.44-.35-.88-.52-1.33-1.86-.1-3.83-.67-5.56-.24-11.56,2.91-23.2,5.64-34.54,9.28-4.78,1.53-8.88,1.8-14.01-.5,10.42-4.54,21.8-5.94,30.19-14.88Z"/>
  <path class="cls-3" d="M171.99,351.41c-3.74-7.01-26.42-13.33-33.08-8.48,2.85,4.81,5.75,9.72,8.85,14.96-2.24-.43-4.17-.81-6.63-1.28-2.09-3.47-4.53-7.03-6.48-10.85-2.48-4.87-.84-8.58,4.62-9.61,3.64-.68,7.83-.97,11.25.15,7.96,2.6,15.79,5.79,23.3,9.5,3.2,1.58,6.2,4.8,3.53,9.83-10.12,3.9-18.46-1.83-27.41-5.06-.65-2-1.25-3.82-1.79-5.5,7.88,2.78,15.53,5.48,23.19,8.18.22-.61.43-1.22.65-1.84Z"/>
  <path class="cls-3" d="M205.68,424.16c.64.99,1.07,1.66,1.66,2.58-1.37.56-2.7,1.11-4.43,1.82-4.06-3.8-8.1-7.57-12.8-11.97,8.35-1.74,14.98,6.86,23.32,1.04-2.07-.94-3.62-2-5.32-2.35-9.06-1.84-18.12-2.01-27.18.31-3.68.94-7.49,1.37-11.14,2.01-1.64-1.42-3-2.6-4.83-4.18,12.83-3.35,26.54-2.2,37.13-11.92,1.5,1.62,2.71,2.93,4.15,4.49-1.48,1.1-2.74,2.03-4.52,3.35,3.57.87,6.69,1.54,9.76,2.41,3.67,1.04,7.46,2.74,6.98,7.14-.49,4.56-4.82,4.84-8.5,5.25-1.15.13-2.32.02-4.27.02Z"/>
  <path class="cls-3" d="M376.65,508.73c5.45-6.1,15.58-2.53,18.87-12.05-15.76,2.38-24.29,13.61-33.63,23.45-1.35,0-2.51.05-3.66-.02-.96-.05-1.91-.24-4.08-.52,4.69-4.71,9.17-8.38,12.59-12.87,3.42-4.49,5.78-9.79,9.05-15.52.77.11,2.82.39,5.18.72-.48,1.86-.86,3.35-1.36,5.3,3.9-1.54,7.16-3.1,10.59-4.07,1.97-.56,4.32-.61,6.31-.13,5.03,1.22,6.17,5.04,2.76,8.92-1.28,1.46-3,2.54-4.76,3.99,1,.34,2.07.69,3.59,1.2-.88,1.26-1.6,2.29-2.47,3.53-5.94-.61-11.88-1.21-18.99-1.94Z"/>
  <path class="cls-3" d="M178.69,385.89c-5.37-.74-10.75-1.48-17.3-2.38-.47-.67-1.61-2.29-2.97-4.23,6.35-.82,12.93-1.67,19.59-2.53,1.42,1.34,2.71,2.57,4.1,3.88-1.01.57-1.78,1.01-2.73,1.56,3.21,2.76,11.62,1.57,7.51,9.2,3.3,1.69,6.89,3.54,10.49,5.38-.09.85-.19,1.7-.28,2.55-4.11,1.16-8.22,2.32-12.69,3.58.59,1.23,1.18,2.45,1.95,4.06-1.57.31-2.98.58-4.87.95-1.95-2.39-3.98-4.87-6.7-8.2,4.68-1.22,8.25-2.15,11.82-3.08.05-.41.1-.83.15-1.24-5.34-.58-10.68-1.15-16.77-1.81-1-.9-2.56-2.31-4.53-4.09,4.91-.81,9.11-1.51,13.32-2.21-.03-.46-.06-.93-.08-1.39Z"/>
  <path class="cls-3" d="M677.9,388.98c.78-.97,1.6-1.99,2.68-3.34,1.04,1.14,1.98,2.17,3.29,3.6-2.28,2.62-4.38,5.04-7.15,8.23-2.9-3.25-5.32-5.97-7.74-8.69-.42.15-.84.31-1.26.46,1.18,4.59,2.37,9.17,3.69,14.26-.84,1.25-1.9,2.83-3.27,4.87-2.43-3.62-4.58-6.84-6.74-10.06-.5.16-1,.32-1.5.48.88,4.66,1.76,9.32,2.74,14.54-.79,1.08-1.94,2.63-3.46,4.69-3.3-5.45-6.35-10.49-9.44-15.6,1.07-1.55,2-2.9,3.16-4.57,1.03.85,1.92,1.58,2.96,2.43.62-9.3,1.84-10.69,6.91-9.58,1.43-3.31,2.04-8.31,4.26-9.18,5.5-2.15,6.24,5.11,10.88,7.46Z"/>
  <path class="cls-3" d="M651.49,414.86c3.55,5.2,1.89,8.62-1.03,11.4-5.04,4.8-10.37,9.3-16.25,14.52-.14-2.46-.23-4.12-.31-5.57,4.08-5.51,11.33-7.85,14.09-16.11-4.53,0-8.09.08-11.64-.02-5.95-.16-8.37-2.59-7.5-8.48,1.06-7.15,3.18-13.95,10.69-17.5,5.7,3.16,5.02,9.07,7.1,13.77-1.53,1.61-2.77,2.91-4.43,4.65-1.1-4.11-2.09-7.79-3.46-12.86-3.44,5.55-5.11,9.88-3.63,15.15,5.91.38,11.57.75,16.36,1.06Z"/>
  <path class="cls-3" d="M571.87,462.28c.74,3.31,1.51,6.76,2.33,10.42,1.63-.48,3.02-.89,4.83-1.42.3,1.34.6,2.65.97,4.3-3.65,1.47-6.93,2.79-10.94,4.4-.76-4.12-1.37-7.38-1.97-10.65-.44-.08-.88-.15-1.32-.23-1.53,4.6-3.06,9.2-4.83,14.55-1.07.6-2.87,1.6-5.03,2.8-1.06-12.57-2.08-24.59-3.12-36.98,1.3-.83,2.77-1.76,4.83-3.06,1.18,7.99,2.26,15.28,3.43,23.16,3.01-3.54,4.34-8.84,10.84-7.29Z"/>
  <path class="cls-3" d="M505.48,503.82c-2.8-1.63-4.05-2.36-5.29-3.08.1.4.2.79.3,1.19-3.37.94-7.82,3.69-9.91,2.46-5.31-3.15-3.52-9.31-3.37-14.83,2.16-.76,4.27-1.5,6.5-2.28v11.46c5.55-2.45,3.9-7.39,4.92-11.78,1.71-.64,3.66-1.38,6.1-2.29v11.09c.36.18.71.36,1.07.54,1.1-1.61,3.38-3.48,3.08-4.77-1.24-5.46,2.76-7.07,5.78-9.58,2.02.36,3.87.69,6.04,1.08-.06,1.16-.13,2.43-.2,3.86-1.33.7-2.6,1.37-3.88,2.05.22.19.44.38.65.57-3.91,4.73-7.81,9.47-11.81,14.31Z"/>
  <path class="cls-3" d="M223.42,446.22c-2.77-2.09-5.37-4.05-7.97-6.02l1.22-1.06c-3.27-2.42-6.53-4.84-9.8-7.27.14-.69.28-1.38.42-2.06,5.51-1.93,11.02-3.87,16.8-5.89,1.65,1.03,3.29,2.06,5.72,3.58-5.16,1.79-9.5,3.3-13.83,4.81.14.65.28,1.3.42,1.95,5.36-.92,10.71-1.84,17.13-2.95.98.56,2.93,1.67,5.86,3.34-5.25,1.72-9.41,3.08-14.2,4.65,1.16,1.75,2.16,3.25,3.3,4.96-1.42.55-2.77,1.07-5.06,1.95Z"/>
  <path class="cls-3" d="M609.4,436.93c-.75,3.35-1.24,5.55-1.64,7.38,1.27,2,2.58,4.06,4.15,6.52,1.26-.57,2.68-1.22,4.5-2.05.51,1.28,1.01,2.55,1.62,4.09-6.32,3.73-12.41,7.32-18.02,10.63-5.27-3.11-6.64-6.49-4.74-11.44,2.47-6.41,7.18-10.93,14.14-15.13Z"/>
  <path class="cls-3" d="M407.25,507.06h6.62c1.35-1.88,2.68-3.75,4.12-5.76h5.67c-.78,1.84-1.5,3.56-2.43,5.77,1.82.37,3.34.68,5.29,1.08-.58,1.28-1.14,2.53-1.99,4.4-7.44-2.92-15.85,1.09-22.94-3.33.69-9.54,12.26-15.15,27.55-13.81-1.29,1.41-2.34,2.55-3.41,3.71-6.83.01-13.13,1.23-18.48,7.94Z"/>
  <path class="cls-3" d="M365.23,502.7c-1.29,1.51-2.13,2.49-3.27,3.82-4.59-1.22-9.27-2.22-13.77-3.73-3.21-1.08-4.17-3.58-2.49-6.76,2.99-5.64,16.25-9.7,21.76-6.68,1.17.64,2.36,1.23,3.02,1.58-2.24,7.84-8.22,7.76-13.64,9.81,3.07.72,5.49,1.28,8.39,1.96Z"/>
  <path class="cls-3" d="M699.92,352.76c1.37-2.45,2.44-4.37,3.64-6.51,1.19.92,2.32,1.79,4.48,3.47-3.07,4.09-5.38,8.91-9.18,11.73-3.72,2.76-7.81-.07-9.81-3.9-1.56-2.98-2.94-6.53-2.79-9.76.11-2.35,2.36-5.64,4.52-6.62,3.36-1.52,5.9,1.22,7.19,4.37.85,2.06,1.19,4.32,1.95,7.23Z"/>
  <path class="cls-3" d="M269,460.09c-4.22.49-8.45.98-12.9,1.5,1.65,1.21,3.39,2.48,5.52,4.04-1.74.83-3.01,1.43-4.55,2.17-3.35-2.14-6.85-4.07-10-6.46-3.81-2.9-3.71-6.59.43-8.71,6.71-3.43,13.86-3.84,20.5-.04,1.69.97,2,4.37,2.94,6.65-.11.16-.22.32-.33.48-.31.23-.66.38-1.04.45-.19-.02-.38-.04-.57-.06Z"/>
  <path class="cls-3" d="M170.71,375.53c-5.14-.77-10.65-1.18-15.91-2.52-4.81-1.23-7.83-5.88-6.83-9.6,1.29-4.83,5.42-5.6,9.48-5.13,3.51.41,7.16,1.34,10.27,2.96,3.41,1.78,5.28,4.87,3.4,9.14-.54,1.24-.25,2.84-.4,5.14Z"/>
  <path class="cls-3" d="M665.18,343.57c9,8.57,17.5,16.67,26.18,24.95,1.2-1.76,2.2-3.24,3.4-5,1.13.98,2.21,1.91,3.8,3.29-2.28,3.06-4.45,5.95-6.38,8.54-9.3-9.86-17.98-19.05-26.66-28.25-.76.61-1.52,1.22-2.28,1.83.58-1.61,1.17-3.22,1.94-5.36Z"/>
  <path class="cls-3" d="M228.55,447.91c5.34-2.37,8.77-3.9,12.52-5.57-.65-.91-1.26-1.76-2.02-2.83,1.38-.56,2.69-1.09,4.18-1.69,1.28.73,2.53,1.45,3.95,2.27,2.22-.84,4.52-1.72,7.28-2.76,1.4.73,3.08,1.61,5.51,2.88-2.65,1.28-4.63,2.23-7,3.38.71.82,1.36,1.55,2.21,2.53-1.3.74-2.55,1.44-3.93,2.21-1.34-.74-2.63-1.45-4.26-2.34-2.77,1.1-5.77,2.29-9.35,3.7,1.98,1.56,3.5,2.76,5.32,4.19-1.54.74-2.97,1.43-4.87,2.35-2.79-2.44-5.64-4.92-9.54-8.33Z"/>
  <path class="cls-3" d="M270.95,459.23c2.35-.77,4.7-1.54,7.66-2.51.75.39,2.03,1.06,3.3,1.71-.16.96-.3,1.78-.4,2.43,3.23,1.67,6.01,3.11,10.32,5.34-6.57,1.67-11.75,2.98-16.92,4.29l.04,1.58c2.11,1.2,4.22,2.4,6.95,3.95-1.49,1-2.71,1.83-4.44,3-3.48-2.37-6.85-4.66-11.37-7.74,3.86-2.71,6.29-4.42,8.37-5.88-1.78-1.74-3.61-3.52-5.44-5.3,0,0-.07.13-.07.13.59-.58,1.55-.41,2.12-1.04,0,0-.1.04-.1.04Z"/>
  <path class="cls-3" d="M466.14,505.5c-.49,1.43-.9,2.64-1.23,3.63-3.09,1.87-10.82,1.21-14.68-1.62,1.16-2.83,2.42-5.9,3.76-9.17-2.68.97-5.46,1.97-9.6,3.47,1.78-4.16,2.97-6.95,4.17-9.75,1.68-.26,3.15-.49,4.59-.72.56.85,1.06,1.6,1.48,2.25,3.54-.31,6.82-.59,10.09-.88.33.29.67.58,1,.87-3.08,3.58-6.15,7.17-9.23,10.75.28.39.55.78.83,1.16h8.82Z"/>
  <path class="cls-3" d="M540.13,473.7v-6.51c1.81-.99,3.62-1.98,5.73-3.13.16,2.47.28,4.44.43,6.84,1.21-.18,2.36-.34,3.83-.56.17,1.24.34,2.47.53,3.82-1.56.88-2.96,1.68-4.18,2.37v8.41c2.35-.66,4.34-1.22,6.65-1.86.09,1.44.17,2.69.29,4.55-3.99,1.07-7.85,2.11-12.84,3.45-.31-4.57-.55-8.07-.81-11.83-1.04.16-2.12.33-3.56.55-.08-1.27-.16-2.68-.25-4.15,1.51-.7,2.81-1.3,4.17-1.94Z"/>
  <path class="cls-3" d="M680.29,309.82c8.46,5.76,16.23,11.04,24.2,16.47-.34,2.04-.65,3.9-1.06,6.34-8.22-5.9-15.82-11.37-23.73-17.05.14-1.38.3-2.98.59-5.76Z"/>
  <path class="cls-3" d="M534.72,490.38c-.14,1.34-.25,2.47-.44,4.28-3.29.47-6.55.93-10.68,1.52.28-5.98.52-10.86.76-15.92,2.1-1.1,3.93-2.07,5.96-3.13v13.26h4.4Z"/>
  <path class="cls-3" d="M428.36,510.76c2.74-5.87,4.93-10.55,7.05-15.08,2.37-.48,4.27-.87,7-1.43-2,4.52-3.76,8.48-5.65,12.75,1.63.21,2.88.38,4.41.58-.5,1.32-.94,2.51-1.62,4.3-3.31-.33-6.6-.66-11.19-1.12Z"/>
  <path class="cls-3" d="M685.28,379.03c.73-1.61,1.28-2.82,1.92-4.22,1.72,1.59,2.69,2.48,4.16,3.85-2.28,2.53-4.28,4.74-6.98,7.73-4.31-4.69-8.03-8.74-11.85-12.89.72-1.95,1.33-3.58,2.2-5.95,3.54,3.86,6.72,7.32,10.54,11.49Z"/>
  <path class="cls-3" d="M708.16,339.06c-1.07-1.69-3.33-3.78-2.93-4.96.64-1.88,2.88-3.97,4.79-4.39,1.13-.25,4.28,2.75,4.11,3.94-.28,2.02-2.48,3.76-3.88,5.62l-2.1-.21Z"/>
  <path class="cls-3" d="M521.21,471.31c3.77-6.6,7.33-6.86,11.44-1.3-1.6,1.23-3.12,3.3-4.86,3.49-1.95.21-4.09-1.28-6.58-2.19Z"/>
  <path class="cls-3" d="M447.04,486.4c-1.12,3.95-3.93,4.6-7.02,3.67-1.25-.37-3.12-2.53-2.87-3.27.52-1.55,2.02-3.36,3.53-3.88,3.09-1.07,5.31.51,6.36,3.48Z"/>
  <path class="cls-3" d="M661.19,365.01c1.35-1.63,2.43-4.06,4.14-4.65,1.49-.51,4.06.64,5.43,1.87.59.54-.24,4.2-1.12,4.52-2.21.8-4.82.5-7.26.64-.4-.8-.79-1.59-1.19-2.39Z"/>
  <path class="cls-2" d="M165.52,140.29v19.68h-81.05c0-6.55,0-13.12,0-19.68,27.02,0,54.03,0,81.05,0Z"/>
  <path class="cls-6" d="M104.2,99.09h-19.45v-44.68h19.45v44.68Z"/>
  <path class="cls-6" d="M165.25,99.08h-19.47v-44.68h19.47v44.68Z"/>
  <path class="cls-2" d="M186.52,140.34c-7.02,0-14.04,0-21.05,0,0-6.76,0-13.52,0-20.6h21.05v20.6Z"/>
  <path class="cls-2" d="M84.52,140.34c-7.02,0-14.04,0-21.05,0,0-6.74,0-13.47,0-20.52h21.05v20.52Z"/>
  <polygon class="cls-9" points="204.89 423.73 204.53 423.86 204.54 423.55 204.89 423.73"/>
  <path class="cls-5" d="M605.67,455.14c-1.18.77-2.58,1.69-4.06,2.67-1.86-4.36-.7-7.97,3.37-11.63.2,2.66.41,5.33.69,8.96Z"/>
  <path class="cls-5" d="M607,445.87h-1v-.33h1v.33Z"/>
  <path class="cls-4" d="M351.84,495.76c3.69-1.4,7.38-2.81,11.07-4.21.3.81.59,1.61.89,2.42-3.75,1.23-7.5,2.46-11.26,3.69-.23-.63-.47-1.26-.7-1.9Z"/>
  <path class="cls-5" d="M693.06,346.06c.79,3.17,1.58,6.33,2.37,9.5-.61.19-1.21.38-1.82.57-1.06-3.12-2.11-6.23-3.17-9.35.88-.24,1.75-.48,2.63-.72Z"/>
  <path class="cls-4" d="M264.65,456.51h-12.15c0-.5,0-.99,0-1.49h12.15c0,.5,0,.99,0,1.49Z"/>
  <path class="cls-5" d="M271.05,459.18c-.71.35-1.41.69-2.12,1.04.71-.35,1.41-.69,2.12-1.04Z"/>
  <path class="cls-9" d="M254.21,460.68c.23.02.46.03.68.06-.23-.02-.46-.03-.68-.06Z"/>
  <path class="cls-5" d="M164.32,364.44c-.98,1.8-1.89,3.48-3.3,6.06-2.6-1.17-5.51-2.48-8.67-3.89,3.47-4.66,5.88-4.92,11.96-2.17Z"/>
  <path class="cls-5" d="M276.5,463.62c-.11.54-.22,1.07-.33,1.61-.51-.47-1.02-.93-1.53-1.4.64.08,1.26.01,1.87-.21Z"/>
  <path class="cls-5" d="M274.63,463.83c.62-.07,1.25-.14,1.87-.21-.62.07-1.25.14-1.87.21Z"/>
  <g class="cls-10">
    <path class="cls-8" d="M257.16,146.37h-9.22V45.55c6.84,0,13.66-.42,20.39.12,6.65.54,10.4,5.37,13.03,11.05,1.79,3.88,3.46,7.82,5.69,12.86,2.02-4.63,3.65-8.28,5.23-11.96,3.57-8.35,9.48-12.93,18.96-12.38,4.94.29,9.91.05,15.12.05v101.08c-3.36,0-6.2-.13-9.19-.18-2.46-2.23-1.82-5.23-1.83-7.98-.06-23.98-.02-47.96-.05-71.93,0-2.45.42-5-.9-7.26-5.34-1.46-8.03-.26-10.64,5.25-3.06,6.47-5.43,13.25-8.13,19.88-1.63,4.01-3.19,8.05-4.88,12.04-.76,1.8-1.34,3.82-3.69,4.56-3.07-.78-3.52-3.68-4.42-6.05-3.73-9.81-7.62-19.55-11.65-29.23-2.56-6.16-5.19-7.62-11.08-6.79-1.83,2.06-1.23,4.67-1.24,7.08-.05,24.31-.02,48.62-.05,72.93,0,2.63.36,5.38-1.46,7.68Z"/>
    <path class="cls-8" d="M789.86,126.33c-1.75,12.48-10.3,19.46-22.97,20-6.31.27-12.65.25-18.96-.04-11.52-.54-20.22-7.29-21.91-18.8-1.85-20.44-2.24-41.8-.09-62.62,1.46-10.87,8.66-17.69,19.6-18.91,8.04-.9,16.36-1.03,24.37-.03,13.05,1.63,20.46,11.13,21,25.61.3,8.14.35,44.8-1.05,54.79Z"/>
    <path class="cls-8" d="M309.84,146.22h-10.6v-28.06c-.33-.09-8.1,17.93-12.16,28.29-4-10.16-11.73-28.54-11.96-28.51v28.37h-10.15c0-2.99,0-75.7.32-80,3.04.88,3.7,3.64,4.65,6.04,4.71,11.92,9.82,23.67,14.51,35.6.65,1.65.95,3.54,2.53,4.79,1.82-1.03,2.01-3,2.67-4.62,4.97-12.17,9.69-24.44,14.86-36.53.96-2.25,1.68-4.73,4.25-5.72,2.83,1.02,2.76,3.38,2.78,5.45.16,23.3.12,46.59.04,69.89,0,1.85-.21,3.68-1.74,5.02Z"/>
    <path class="cls-1" d="M309.84,146.22v-79.34c-.5-.14-1-.29-1.49-.43-6.94,17.02-13.88,34.03-21.31,52.27-7.33-18.08-14.19-35-21.05-51.92-.34.03-.68.06-1.02.1,0,26.47,0,52.94,0,79.41-2.6.02-5.2.04-7.8.06,0-29.8,0-59.59,0-89.31,8.65-1.87,12.31-.1,15.48,7.74,4.71,11.65,9.23,23.37,14.18,35.97.97-1.91,1.66-3.05,2.14-4.27,3.99-10,7.94-20.01,11.91-30.01,3.74-9.45,5.6-10.63,16.3-9.92,0,29.84,0,59.73,0,89.62-2.44.01-4.89.02-7.33.04Z"/>
    <path class="cls-1" d="M497.97,146.3c-2.27.02-4.54.03-6.81.05-1.84-1.62-1.87-3.82-1.88-5.99-.06-13.98-.06-27.97,0-41.95.01-2.16.1-4.34,1.49-6.11,2.33-1.92,5.06-1.66,7.7-1.71,6.66-.12,13.33.28,19.97-.2,7.23-.52,11.34-4.63,11.68-11.23.35-6.91-3.97-11.83-11.04-12.04-10.32-.31-20.64-.04-30.96-.12-2.47-.02-5.05.23-7.09-1.69.01-3.03.02-6.07.03-9.1,1.93-1.76,4.34-1.43,6.64-1.44,10.3-.04,20.61-.02,30.91-.02,14.81,0,24.44,9.98,23.79,24.88-.33,7.48-3.47,13.67-8.95,18.86-3.15,2.97-7.25,2.86-10.89,4.01-.34,2.78,1.14,4.71,2.13,6.75,5,10.32,10.49,20.4,14.93,30.98.81,1.94,2.33,3.75,1.28,6.08-2.64,0-5.29,0-7.93-.01-2.42-1.18-3.43-3.48-4.59-5.69-5.59-10.57-10.04-21.69-15.62-32.26-1.08-2.04-1.86-4.28-4.02-5.82-2.59-.84-5.33-.99-8.07.03-1.51,1.93-1.11,4.16-1.12,6.27-.05,10.29,0,20.58-.04,30.87,0,2.3.24,4.7-1.55,6.6Z"/>
    <path class="cls-1" d="M642.14,54.35c13.7.14,27.42.71,41.11.29,11.52-.35,17.68,4.21,21.65,13.79,3.89,9.38,1.55,19.4-5.86,26.95-.49.5,6.32,9.12,7.72,14.65,2.43,9.34-1.95,24.1-9.18,29.85-4,.42-40.31-.08-55.41,0-.01-3-.03-6-.04-9,0-4.04.04-27.2.04-29.81.03-2.69.05-5.39.08-8.08-.01-3.41-.09-24.01-.09-28.59,0-3.35-.01-6.7-.02-10.05Z"/>
    <path class="cls-8" d="M642.14,56.15c0-3.41,0-7.03.01-10.85,15.54,0,30.67-.46,45.71.49,8.22.52,15.87,8.69,20.66,17.25,2.18,3.88,2.88,7.88,3.22,12.09.63,7.77-2.72,11.38-6.43,19.32,1.4,2.98,3.59,7.24,5.29,10.76,3.1,6.41,2.41,14.68-.41,21.76-1.92,4.82-5.61,9.17-9.37,12.67-4.26,3.96-9.09,6.77-15.08,6.79-14.31.06-28.61.02-43.59.02v-10.95c2.18,0,31.39,0,42.42-.35,7.99.25,12.76-3.68,17.05-10.42,1.38-3.13,2.75-5.61,2.18-11.21-.33-3.27-1.28-5.4-2.34-7.83-1.22-2.78-3.02-5.81-5.65-10.85,1.23-1.07,5.13-4.78,6.89-9.89.93-2.7,1.46-5.76,1.3-8.54-.13-2.34-.84-4.48-1.33-6.08-1.3-3.82-3.32-6.99-5.98-9.35-3.17-2.81-7.21-4.45-12.08-4.53-11.56-.04-38.89-.31-42.49-.31Z"/>
    <path class="cls-8" d="M540.91,146.31c-7.22-15.07-14.44-30.13-22.06-46.03,10.96,1.64,16.87-3.81,20.24-12.7,3.47-9.15,1.89-17.62-4.1-25.27-3.14-4.01-7.11-6.12-12.45-6.06-13.82.16-27.65,0-41.47-.04,0-3.47,0-6.93,0-10.65,15.31,0,30.5-.98,45.49.31,11.93,1.02,18.96,10.2,22.31,21.06,5.2,16.88,1.14,31.27-14.49,41.72,5.4,12.48,10.7,24.75,16.28,37.66-3.65,0-6.7,0-9.74,0Z"/>
    <path class="cls-8" d="M481.03,65.31c12.63-.07,25.28.3,37.87-.39,7.16-.39,13.52,6.94,13.44,13.02-.11,8.18-5.16,14.15-13.25,14.32-9.11.19-18.23.04-27.94.04,0,18.27,0,36.16,0,54.05-3.15,0-6.3,0-10.1,0v-63.97c1.98-2.01,4.56-1.76,7.03-1.77,8.81-.06,17.61.05,26.42-.07,2.21-.03,4.71.56,6.52-1.76-.67-3.31-3.44-2.64-5.52-2.68-9.14-.18-18.28-.03-27.42-.1-2.47-.02-5.04.23-7.09-1.66,0-3.01.02-6.02.02-9.02Z"/>
    <path class="cls-1" d="M873,56.37c-.02,3-.04,6-.06,9.01-3.4,0-23.93-.05-29.96,0v80.92c-3.02,0-6.03-.01-9.05-.02v-80.92h-29.94c-.02-2.99-.04-5.97-.06-8.96,2.51,0,66.5,0,69.07-.02Z"/>
    <path class="cls-8" d="M642.17,99.5c14.27-.08,28.55-.41,42.82-.14,9.41.18,15.11,13.56,9.47,21.83-2.69,3.94-6.17,6.62-11.54,6.48-13.59-.36-27.19-.36-40.79-.51.01-9.22.03-18.44.04-27.66Z"/>
    <path class="cls-8" d="M642.15,65.47c14.28-.08,28.56-.3,42.84-.18,5.78.05,11.05,5.88,11.77,12.22.64,5.66-3.69,12.16-9.29,13.78-1.58.45-3.24.84-4.87.84-13.46.01-26.91-.07-40.37-.13-.03-8.84-.06-17.68-.09-26.53Z"/>
    <path class="cls-8" d="M803.99,65.36h29.94v80.92c-2.89.02-5.49.02-8.95.02v-69.34h-21.05c0-4.1,0-7.79.06-11.6Z"/>
    <path class="cls-8" d="M842.98,146.3v-80.92c10.15,0,20.05,0,29.95,0,.06,3.82.06,7.23.06,11.27h-20.8v69.65h-9.22Z"/>
    <path class="cls-8" d="M497.97,146.3v-45.58h12.75c7.33,15.01,14.8,30.3,22.26,45.58h-9.57c-4.62-10.53-9.39-21.39-14.15-32.24,0,.71.44,30.21.48,32.29-3.83,0-8.5-.05-11.77-.05Z"/>
    <path class="cls-8" d="M873,56.37c-23.02,0-46.05.02-69.07.02,0-3.47,0-6.53,0-10.58,23.36,0,45.83-.17,69.07-.17v10.73Z"/>
    <path class="cls-8" d="M411.14,146.24v-18.29h20.9v18.29h-20.9Z"/>
    <path class="cls-1" d="M481.01,74.33h41.74v8.05c-14.5,0-28.09,0-41.68,0-.02-2.68-.04-5.37-.06-8.05Z"/>
    <path class="cls-8" d="M628.47,126.1c-1.75,12.48-10.3,19.46-22.97,20-6.31.27-12.65.25-18.96-.04-11.52-.54-20.22-7.29-21.91-18.8-1.85-20.44-2.24-41.8-.09-62.62,1.46-10.87,8.66-17.69,19.6-18.91,8.04-.9,16.36-1.03,24.37-.03,13.05,1.63,20.46,11.13,21,25.61.3,8.14.35,44.8-1.05,54.79Z"/>
    <path class="cls-1" d="M619.57,95.98c0,7.99.12,15.99-.03,23.98-.19,10.07-6.24,16.04-16.36,16.06-6.13.02-12.32.08-18.37-.73-6.8-.91-10.87-5.89-11.04-12.33-.48-18.1-.47-36.23-.02-54.34.18-7.26,4.99-11.85,12.45-12.62,6.56-.67,13.31-.81,19.86-.11,8.75.93,13.34,6.67,13.49,15.61.13,8.16.03,16.32.03,24.48Z"/>
    <path class="cls-8" d="M612.63,95.85c0,6.83.21,13.66-.06,20.48-.25,6.29-3.55,9.47-9.68,9.73-4.32.18-8.67.17-12.99,0-5.64-.23-9.1-2.71-9.3-8.34-.51-14.26-.71-28.56-.14-42.81.28-6.99,2.86-9.01,9.77-9.6,4.91-.42,9.92.21,14.87.59,5.12.39,7.18,4.08,7.41,8.48.37,7.14.1,14.32.1,21.48.01,0,.02,0,.03,0Z"/>
    <path class="cls-2" d="M590.97,114.69v-37.63h10.84v37.63h-10.84Z"/>
    <path class="cls-1" d="M780.96,96.2c0,7.99.12,15.99-.03,23.98-.19,10.07-6.24,16.04-16.36,16.06-6.13.02-12.32.08-18.37-.73-6.8-.91-10.87-5.89-11.04-12.33-.48-18.1-.47-36.23-.02-54.34.18-7.26,4.99-11.85,12.45-12.62,6.56-.67,13.31-.81,19.86-.11,8.75.93,13.34,6.67,13.49,15.61.13,8.16.03,16.32.03,24.48Z"/>
    <path class="cls-1" d="M684.59,110.03c-.25,2.66-.45,4.77-.66,7.01h-31.53v-7.01h32.19Z"/>
    <path class="cls-1" d="M652.19,81.98v-6.85h32.44c-.18,2.57-.33,4.6-.48,6.85h-31.95Z"/>
    <path class="cls-8" d="M774.03,96.08c0,6.83.21,13.66-.06,20.48-.25,6.29-3.55,9.47-9.68,9.73-4.32.18-8.67.17-12.99,0-5.64-.23-9.1-2.71-9.3-8.34-.51-14.26-.71-28.56-.14-42.81.28-6.99,2.86-9.01,9.77-9.6,4.91-.42,9.92.21,14.87.59,5.12.39,7.18,4.08,7.41,8.48.37,7.14.1,14.32.1,21.48.01,0,.02,0,.03,0Z"/>
    <path class="cls-2" d="M752.36,114.92v-37.63h10.84v37.63h-10.84Z"/>
    <path class="cls-1" d="M354.57,146.23c-2.27.02-4.54.03-6.81.05-1.84-1.62-1.87-3.82-1.88-5.99-.06-13.98-.06-27.97,0-41.95.01-2.16.1-4.34,1.49-6.11,2.33-1.92,5.06-1.66,7.7-1.71,6.66-.12,13.33.28,19.97-.2,7.23-.52,11.34-4.63,11.68-11.23.35-6.91-3.97-11.83-11.04-12.04-10.32-.31-20.64-.04-30.96-.12-2.47-.02-5.05.23-7.09-1.69.01-3.03.02-6.07.03-9.1,1.93-1.76,4.34-1.43,6.64-1.44,10.3-.04,20.61-.02,30.91-.02,14.81,0,24.44,9.98,23.79,24.88-.33,7.48-3.47,13.67-8.95,18.86-3.15,2.97-7.25,2.86-10.89,4.01-.34,2.78,1.14,4.71,2.13,6.75,5,10.32,10.49,20.4,14.93,30.98.81,1.94,2.33,3.75,1.28,6.08-2.64,0-5.29,0-7.93-.01-2.42-1.18-3.43-3.48-4.59-5.69-5.59-10.57-10.04-21.69-15.62-32.26-1.08-2.04-1.86-4.28-4.02-5.82-2.59-.84-5.33-.99-8.07.03-1.51,1.93-1.11,4.16-1.12,6.27-.05,10.29,0,20.58-.04,30.87,0,2.3.24,4.7-1.55,6.6Z"/>
    <path class="cls-8" d="M397.51,146.24c-7.22-15.07-14.44-30.13-22.06-46.03,10.96,1.64,16.87-3.81,20.24-12.7,3.47-9.15,1.89-17.62-4.1-25.27-3.14-4.01-7.11-6.12-12.45-6.06-13.82.16-27.65,0-41.47-.04,0-3.47,0-6.93,0-10.65,15.31,0,30.5-.98,45.49.31,11.93,1.02,18.96,10.2,22.31,21.06,5.2,16.88,1.14,31.27-14.49,41.72,5.4,12.48,10.7,24.75,16.28,37.66-3.65,0-6.7,0-9.74,0Z"/>
    <path class="cls-8" d="M337.63,65.24c12.63-.07,25.28.3,37.87-.39,7.16-.39,13.52,6.94,13.44,13.02-.11,8.18-5.16,14.15-13.25,14.32-9.11.19-18.23.04-27.94.04,0,18.27,0,36.16,0,54.05-3.15,0-6.3,0-10.1,0v-63.97c1.98-2.01,4.56-1.76,7.03-1.77,8.81-.06,17.61.05,26.42-.07,2.21-.03,4.71.56,6.52-1.76-.67-3.31-3.44-2.64-5.52-2.68-9.14-.18-18.28-.03-27.42-.1-2.47-.02-5.04.23-7.09-1.66,0-3.01.02-6.02.02-9.02Z"/>
    <path class="cls-1" d="M337.6,74.26h41.74v8.05c-14.5,0-28.09,0-41.68,0-.02-2.68-.04-5.37-.06-8.05Z"/>
    <path class="cls-8" d="M354.56,146.23v-45.58h12.75c7.33,15.01,14.8,30.3,22.26,45.58h-9.57c-4.62-10.53-9.39-21.39-14.15-32.24,0,.71.44,30.21.48,32.29-3.83,0-8.5-.05-11.77-.05Z"/>
  </g>
</svg>